<?xml version="1.0" standalone="no"?>
<!DOCTYPE svg PUBLIC "-//W3C//DTD SVG 20010904//EN"
 "http://www.w3.org/TR/2001/REC-SVG-20010904/DTD/svg10.dtd">
<svg version="1.0" xmlns="http://www.w3.org/2000/svg"
 width="1024.000000pt" height="1024.000000pt" viewBox="0 0 1024.000000 1024.000000"
 preserveAspectRatio="xMidYMid meet">

<g transform="translate(0.000000,1024.000000) scale(0.100000,-0.100000)"
fill="#000000" stroke="none">
<path d="M0 5120 l0 -5120 5120 0 5120 0 0 453 c0 286 -4 447 -10 437 -7 -12
-9 -10 -7 7 0 12 5 19 9 17 5 -3 8 1283 8 2857 0 2259 -3 2865 -13 2878 -9 12
-9 13 1 7 9 -6 12 355 12 1788 l0 1796 -5120 0 -5120 0 0 -5120z m2010 4814
c0 -8 -5 -12 -10 -9 -6 4 -8 11 -5 16 9 14 15 11 15 -7z m7550 12 c0 -2 -8
-10 -17 -17 -16 -13 -17 -12 -4 4 13 16 21 21 21 13z m-8370 -20 c0 -3 -4 -8
-10 -11 -5 -3 -10 -1 -10 4 0 6 5 11 10 11 6 0 10 -2 10 -4z m8750 -26 c0 -5
-5 -10 -11 -10 -5 0 -7 5 -4 10 3 6 8 10 11 10 2 0 4 -4 4 -10z m-2080 -10 c0
-5 -2 -10 -4 -10 -3 0 -8 5 -11 10 -3 6 -1 10 4 10 6 0 11 -4 11 -10z m1980 0
c0 -5 -5 -10 -11 -10 -5 0 -7 5 -4 10 3 6 8 10 11 10 2 0 4 -4 4 -10z m-9698
-22 c-7 -7 -12 -8 -12 -2 0 14 12 26 19 19 2 -3 -1 -11 -7 -17z m1348 -2 c0
-3 -4 -8 -10 -11 -5 -3 -10 -1 -10 4 0 6 5 11 10 11 6 0 10 -2 10 -4z m1327
-58 c-3 -8 -6 -5 -6 6 -1 11 2 17 5 13 3 -3 4 -12 1 -19z m-1283 -4 c3 -8 2
-12 -4 -9 -6 3 -10 10 -10 16 0 14 7 11 14 -7z m3196 -14 c0 -5 -5 -10 -11
-10 -5 0 -7 5 -4 10 3 6 8 10 11 10 2 0 4 -4 4 -10z m4770 -20 c0 -5 -2 -10
-4 -10 -3 0 -8 5 -11 10 -3 6 -1 10 4 10 6 0 11 -4 11 -10z m-945 -20 c3 -5 1
-10 -4 -10 -6 0 -11 5 -11 10 0 6 2 10 4 10 3 0 8 -4 11 -10z m550 -10 c3 -5
1 -10 -4 -10 -6 0 -11 5 -11 10 0 6 2 10 4 10 3 0 8 -4 11 -10z m-887 -25 c-3
-3 -9 2 -12 12 -6 14 -5 15 5 6 7 -7 10 -15 7 -18z m973 -18 c-10 -9 -11 -8
-5 6 3 10 9 15 12 12 3 -3 0 -11 -7 -18z m-2001 8 c0 -7 -30 -13 -34 -7 -3 4
4 9 15 9 10 1 19 0 19 -2z m-5485 -23 c-3 -3 -11 0 -18 7 -9 10 -8 11 6 5 10
-3 15 -9 12 -12z m5085 8 c0 -5 -4 -10 -10 -10 -5 0 -10 5 -10 10 0 6 5 10 10
10 6 0 10 -4 10 -10z m2860 -14 c0 -2 -7 -6 -15 -10 -8 -3 -15 -1 -15 4 0 6 7
10 15 10 8 0 15 -2 15 -4z m-8468 -28 c-7 -7 -12 -8 -12 -2 0 14 12 26 19 19
2 -3 -1 -11 -7 -17z m89 5 c13 -16 12 -17 -3 -4 -17 13 -22 21 -14 21 2 0 10
-8 17 -17z m6654 -33 c3 -5 2 -10 -4 -10 -5 0 -13 5 -16 10 -3 6 -2 10 4 10 5
0 13 -4 16 -10z m-5420 -20 c3 -6 -1 -7 -9 -4 -18 7 -21 14 -7 14 6 0 13 -4
16 -10z m3402 -32 c-3 -8 -6 -5 -6 6 -1 11 2 17 5 13 3 -3 4 -12 1 -19z m2673
-8 c0 -5 -5 -10 -11 -10 -5 0 -7 5 -4 10 3 6 8 10 11 10 2 0 4 -4 4 -10z m698
-15 c-3 -3 -9 2 -12 12 -6 14 -5 15 5 6 7 -7 10 -15 7 -18z m-1418 -5 c0 -5
-5 -10 -11 -10 -5 0 -7 5 -4 10 3 6 8 10 11 10 2 0 4 -4 4 -10z m1150 0 c0
-13 -11 -13 -30 0 -12 8 -11 10 8 10 12 0 22 -4 22 -10z m-63 -62 c-3 -8 -6
-5 -6 6 -1 11 2 17 5 13 3 -3 4 -12 1 -19z m-5437 8 c0 -2 -8 -10 -17 -17 -16
-13 -17 -12 -4 4 13 16 21 21 21 13z m-2120 -90 c0 -2 -7 -9 -15 -16 -13 -11
-14 -10 -9 4 5 14 24 23 24 12z m390 -11 c0 -8 -4 -15 -10 -15 -5 0 -7 7 -4
15 4 8 8 15 10 15 2 0 4 -7 4 -15z m5360 1 c0 -3 -4 -8 -10 -11 -5 -3 -10 -1
-10 4 0 6 5 11 10 11 6 0 10 -2 10 -4z m1100 -66 c0 -5 -5 -10 -11 -10 -5 0
-7 5 -4 10 3 6 8 10 11 10 2 0 4 -4 4 -10z m840 -20 c0 -5 -2 -10 -4 -10 -3 0
-8 5 -11 10 -3 6 -1 10 4 10 6 0 11 -4 11 -10z m197 4 c-3 -3 -12 -4 -19 -1
-8 3 -5 6 6 6 11 1 17 -2 13 -5z m-7212 -24 c3 -6 -1 -7 -9 -4 -18 7 -21 14
-7 14 6 0 13 -4 16 -10z m7155 -10 c0 -5 -2 -10 -4 -10 -3 0 -8 5 -11 10 -3 6
-1 10 4 10 6 0 11 -4 11 -10z m-425 -10 c3 -6 -1 -7 -9 -4 -18 7 -21 14 -7 14
6 0 13 -4 16 -10z m-2435 -4 c0 -3 -4 -8 -10 -11 -5 -3 -10 -1 -10 4 0 6 5 11
10 11 6 0 10 -2 10 -4z m3095 -46 c3 -5 1 -10 -4 -10 -6 0 -11 5 -11 10 0 6 2
10 4 10 3 0 8 -4 11 -10z m-5022 -87 c-7 -2 -19 -2 -25 0 -7 3 -2 5 12 5 14 0
19 -2 13 -5z m3712 -3 c3 -5 1 -10 -4 -10 -6 0 -11 5 -11 10 0 6 2 10 4 10 3
0 8 -4 11 -10z m-2982 -46 c55 -26 59 -41 58 -202 -2 -186 -22 -231 -101 -231
-38 0 -57 11 -83 49 -14 20 -17 49 -17 160 0 150 8 192 42 220 28 24 57 25
101 4z m3853 -60 c-4 -9 -9 -15 -11 -12 -3 3 -3 13 1 22 4 9 9 15 11 12 3 -3
3 -13 -1 -22z m339 17 c3 -5 1 -12 -5 -16 -5 -3 -10 1 -10 9 0 18 6 21 15 7z
m-8241 -40 c-2 -3 -12 3 -22 13 -16 17 -16 18 5 5 12 -7 20 -15 17 -18z m7421
-41 c-3 -5 -12 -10 -18 -10 -7 0 -6 4 3 10 19 12 23 12 15 0z m-7670 -10 c3
-6 -1 -7 -9 -4 -18 7 -21 14 -7 14 6 0 13 -4 16 -10z m8575 6 c0 -2 -7 -7 -16
-10 -8 -3 -12 -2 -9 4 6 10 25 14 25 6z m-8979 -29 c-10 -9 -11 -8 -5 6 3 10
9 15 12 12 3 -3 0 -11 -7 -18z m2501 -79 c-8 -8 -9 -4 -5 13 4 13 8 18 11 10
2 -7 -1 -18 -6 -23z m4388 -8 c0 -5 -5 -10 -11 -10 -5 0 -7 5 -4 10 3 6 8 10
11 10 2 0 4 -4 4 -10z m-5810 -4 c0 -3 -4 -8 -10 -11 -5 -3 -10 -1 -10 4 0 6
5 11 10 11 6 0 10 -2 10 -4z m2526 -74 c21 -16 52 -46 68 -68 16 -21 36 -46
43 -54 112 -123 129 -155 113 -205 -13 -38 -50 -72 -89 -82 -14 -3 -32 -11
-40 -17 -10 -7 -13 -7 -9 0 4 5 -47 65 -113 132 -65 67 -116 122 -113 122 3 0
-2 10 -10 22 -31 44 -12 142 31 167 32 19 79 12 119 -17z m2044 8 c0 -5 -4
-10 -10 -10 -5 0 -10 5 -10 10 0 6 5 10 10 10 6 0 10 -4 10 -10z m225 -16 c20
-22 25 -38 25 -80 0 -47 -4 -57 -46 -108 -25 -31 -39 -56 -32 -57 9 0 8 -2 -2
-6 -8 -3 -52 -41 -97 -85 -77 -76 -83 -80 -115 -74 -53 10 -91 56 -91 111 0
28 6 52 16 63 10 10 17 24 17 30 0 7 4 12 9 12 4 0 39 38 76 85 103 130 186
167 240 109z m3450 -74 c3 -6 -1 -7 -9 -4 -18 7 -21 14 -7 14 6 0 13 -4 16
-10z m-7005 -14 c0 -3 -4 -8 -10 -11 -5 -3 -10 -1 -10 4 0 6 5 11 10 11 6 0
10 -2 10 -4z m2010 -6 c0 -5 -2 -10 -4 -10 -3 0 -8 5 -11 10 -3 6 -1 10 4 10
6 0 11 -4 11 -10z m2165 -30 c-3 -5 -11 -10 -16 -10 -6 0 -7 5 -4 10 3 6 11
10 16 10 6 0 7 -4 4 -10z m-5387 -35 c-2 -5 -8 -10 -15 -11 -6 -1 -9 4 -6 12
6 16 27 15 21 -1z m488 -2 c-10 -10 -46 -11 -40 -1 3 4 15 8 26 8 12 0 18 -3
14 -7z m-671 -33 c-3 -5 -12 -10 -18 -10 -7 0 -6 4 3 10 19 12 23 12 15 0z
m3765 0 c0 -5 -2 -10 -4 -10 -3 0 -8 5 -11 10 -3 6 -1 10 4 10 6 0 11 -4 11
-10z m-4400 -30 c0 -5 -2 -10 -4 -10 -3 0 -8 5 -11 10 -3 6 -1 10 4 10 6 0 11
-4 11 -10z m1855 0 c3 -5 -1 -10 -9 -10 -9 0 -16 5 -16 10 0 6 4 10 9 10 6 0
13 -4 16 -10z m3312 4 c-3 -3 -12 -4 -19 -1 -8 3 -5 6 6 6 11 1 17 -2 13 -5z
m-3567 -104 c0 -5 -5 -10 -11 -10 -5 0 -7 5 -4 10 3 6 8 10 11 10 2 0 4 -4 4
-10z m5010 -2 c0 -4 -7 -8 -15 -8 -8 0 -15 4 -15 8 0 5 7 9 15 9 8 0 15 -4 15
-9z m2180 2 c0 -5 -5 -10 -11 -10 -5 0 -7 5 -4 10 3 6 8 10 11 10 2 0 4 -4 4
-10z m-7345 -30 c3 -5 -1 -10 -10 -10 -9 0 -13 5 -10 10 3 6 8 10 10 10 2 0 7
-4 10 -10z m3179 -45 c132 -38 263 -103 344 -170 28 -23 143 -143 172 -180 86
-108 156 -259 185 -397 14 -70 17 -108 11 -200 -4 -62 -8 -125 -9 -140 -1 -14
-4 -24 -6 -22 -3 3 -11 -19 -18 -47 -15 -60 -98 -235 -140 -295 -15 -23 -77
-92 -136 -154 -113 -118 -146 -168 -171 -267 -19 -74 -22 -228 -4 -239 18 -11
48 -12 48 -2 0 9 41 -12 52 -27 5 -6 8 -3 8 7 0 9 17 30 37 45 36 28 39 28
163 26 200 -2 282 -25 410 -112 32 -22 61 -37 65 -33 4 4 5 2 3 -5 -1 -6 14
-31 34 -56 48 -58 75 -110 90 -175 13 -51 13 -52 58 -58 147 -19 274 -94 361
-214 l43 -59 221 5 c121 3 258 1 305 -3 61 -6 -2 -8 -225 -9 l-311 -1 -34 49
c-81 119 -221 205 -352 217 l-73 6 -6 57 c-8 75 -54 152 -136 227 -120 111
-240 151 -451 151 -123 0 -154 -7 -179 -39 -18 -24 -16 -86 5 -109 21 -25 44
-28 142 -19 135 14 252 -34 354 -143 49 -54 106 -152 106 -185 0 -8 7 -31 15
-51 8 -19 10 -32 5 -29 -5 3 -17 32 -26 63 -18 64 -53 132 -67 132 -5 0 -7 -6
-4 -14 4 -10 0 -12 -14 -9 -14 4 -17 9 -9 18 5 6 7 15 3 18 -3 4 -1 7 5 7 7 0
5 8 -5 19 -17 20 -33 19 -33 -2 0 -7 4 -6 10 3 8 13 10 12 10 -2 0 -10 -4 -18
-8 -18 -5 0 -14 -15 -21 -33 -11 -28 -18 -33 -37 -29 -14 2 -21 9 -17 16 4 6
-1 4 -11 -4 -16 -13 -20 -12 -31 3 -13 18 -51 24 -40 7 3 -5 -4 -10 -15 -10
-17 0 -21 -4 -16 -17 6 -17 5 -17 -7 -1 -11 13 -16 15 -25 6 -9 -9 -12 -9 -12
0 0 13 -26 17 -33 5 -2 -5 -2 -2 -1 5 2 6 0 12 -4 13 -4 0 -16 2 -27 5 -11 2
-27 1 -35 -3 -8 -3 -24 -7 -35 -8 -11 -1 -24 -4 -30 -5 -5 -2 -18 0 -27 4 -14
6 -15 12 -8 26 6 10 10 21 10 24 0 8 -47 -42 -53 -56 -4 -9 -6 -7 -6 4 -1 9 4
20 9 23 17 10 11 25 -7 18 -11 -4 -14 -3 -9 5 5 8 0 12 -13 12 -10 0 -21 -3
-24 -7 -2 -5 -2 -3 -1 4 2 7 -1 15 -7 18 -5 4 -7 11 -3 16 3 5 0 17 -8 26 -7
9 -8 14 -3 11 6 -4 17 3 25 15 12 20 12 21 -3 9 -14 -12 -16 -10 -14 14 2 18
9 28 20 30 12 1 17 -2 14 -11 -4 -9 1 -11 14 -8 19 5 19 6 -2 24 l-22 19 34 1
c19 0 27 3 19 6 -8 3 -25 17 -38 31 -15 19 -20 21 -16 8 6 -15 4 -17 -12 -9
-10 6 -25 8 -31 6 -8 -3 -13 3 -13 14 0 15 -2 16 -10 3 -5 -8 -10 -10 -10 -5
0 6 -5 3 -10 -5 -8 -12 -10 -11 -10 7 0 12 -4 24 -10 28 -5 3 -11 -24 -13 -67
-1 -40 -4 17 -5 127 -3 297 9 330 189 525 69 74 141 162 161 195 85 141 138
312 145 470 14 287 -163 614 -430 794 -98 66 -244 124 -382 152 -79 15 -303
12 -392 -7 -163 -33 -330 -129 -450 -258 -117 -126 -193 -283 -233 -477 -29
-135 -23 -298 13 -440 42 -163 99 -255 264 -431 169 -179 203 -259 203 -472 0
-88 -3 -126 -10 -116 -7 11 -10 5 -11 -25 -2 -31 -3 -34 -6 -12 -5 32 -28 31
-27 -2 0 -11 -4 -21 -9 -21 -5 0 -7 11 -5 25 3 14 1 25 -3 25 -5 0 -9 -4 -9
-8 0 -4 -9 -8 -20 -9 -11 -1 -20 2 -20 8 0 19 -16 8 -38 -26 l-22 -35 29 0
c20 0 30 6 34 20 3 11 11 20 17 20 8 0 9 -7 5 -17 -4 -10 -8 -23 -9 -30 -1 -7
-5 -15 -9 -19 -11 -12 3 -23 20 -17 11 4 14 3 9 -6 -5 -7 -14 -10 -21 -7 -8 3
-12 -4 -12 -20 0 -31 -6 -36 -27 -28 -15 6 -15 7 -1 18 27 19 -34 19 -63 0
-13 -9 -22 -12 -18 -6 3 5 -3 12 -15 15 -11 3 -19 11 -18 19 4 29 -1 40 -17
34 -8 -3 -12 -2 -9 4 3 6 4 10 1 10 -2 0 -12 3 -22 7 -12 4 -15 3 -10 -5 5 -8
-2 -12 -19 -12 -14 0 -24 -4 -21 -9 11 -17 -43 -18 -59 -1 -20 22 -19 28 8 33
12 2 6 3 -13 2 -137 -11 -291 -146 -320 -282 -18 -85 -21 -95 -25 -91 -10 10
27 143 52 189 50 93 162 173 277 199 50 11 66 9 168 -23 l68 -21 -25 -16 c-14
-9 -22 -19 -19 -23 6 -6 16 1 51 33 15 14 16 13 10 -10 -6 -24 -5 -24 9 -5 13
17 12 20 -3 29 -28 14 -28 15 -6 39 52 56 33 112 -48 147 -47 20 -65 22 -173
18 -93 -3 -134 -9 -177 -26 -68 -27 -179 -100 -237 -156 -67 -63 -89 -106
-116 -227 -5 -23 -12 -27 -61 -33 -68 -8 -146 -37 -205 -76 -53 -35 -135 -114
-157 -150 l-14 -25 -312 -1 c-332 -1 -400 -8 -829 -84 -247 -44 -259 -55 -266
-246 l-5 -124 -99 0 c-109 0 -154 -13 -202 -58 -48 -46 -66 -96 -66 -194 0
-54 -4 -88 -10 -88 -7 0 -8 32 -4 92 7 112 33 170 96 219 42 34 44 34 160 38
l118 3 0 103 c0 193 27 223 240 259 47 8 107 20 135 26 27 6 81 16 120 21 38
5 99 14 135 19 36 5 94 12 130 16 41 4 70 12 78 22 6 9 12 11 12 6 0 -7 92
-10 275 -9 192 1 275 -2 275 -9 0 -6 5 -4 9 4 5 8 9 17 8 20 -2 10 110 108
168 148 66 44 135 71 207 79 l47 6 12 55 c13 57 63 149 106 194 31 32 151 115
208 143 22 11 42 22 45 25 3 3 14 6 25 7 11 2 50 7 86 13 101 15 222 -1 273
-36 10 -7 26 -10 35 -7 12 4 13 3 3 -4 -10 -8 -10 -12 3 -23 12 -10 15 -10 15
1 0 9 3 10 11 2 13 -13 51 -5 42 10 -4 7 8 8 35 4 l42 -5 0 86 c0 97 -14 160
-54 243 -30 62 -139 195 -167 204 -10 3 -20 14 -23 23 -3 9 -26 37 -51 62 -24
25 -44 50 -45 56 0 6 -9 19 -20 29 -11 10 -20 25 -20 34 0 14 -2 14 -11 1 -9
-13 -10 -12 -5 3 3 10 -1 28 -8 40 -56 85 -98 285 -95 447 1 63 2 127 2 142 0
15 3 25 7 23 4 -2 12 22 17 54 6 32 25 93 42 135 71 177 171 306 333 428 26
20 44 39 40 44 -4 4 -2 4 5 0 17 -9 75 22 67 36 -4 6 -3 8 4 4 6 -3 50 7 99
23 189 64 392 66 597 6z m-4339 17 c-3 -3 -11 0 -18 7 -9 10 -8 11 6 5 10 -3
15 -9 12 -12z m616 -75 c-10 -9 -11 -8 -5 6 3 10 9 15 12 12 3 -3 0 -11 -7
-18z m-1553 -22 c-3 -3 -9 2 -12 12 -6 14 -5 15 5 6 7 -7 10 -15 7 -18z m8607
-43 c-3 -3 -11 0 -18 7 -9 10 -8 11 6 5 10 -3 15 -9 12 -12z m-7651 -28 c3 -8
2 -12 -4 -9 -6 3 -10 10 -10 16 0 14 7 11 14 -7z m7091 6 c-3 -5 -12 -10 -18
-10 -7 0 -6 4 3 10 19 12 23 12 15 0z m-2850 -25 c221 -58 419 -220 515 -420
26 -55 53 -121 59 -146 20 -86 23 -209 8 -294 -31 -167 -86 -264 -241 -425
-56 -58 -117 -129 -135 -157 -42 -67 -78 -169 -93 -267 l-12 -76 -94 0 -94 0
3 335 c2 184 5 335 6 335 2 0 17 -9 35 -20 58 -35 167 -21 221 28 53 48 80
155 68 267 -8 64 -14 82 -37 107 -38 40 -82 58 -145 58 -104 0 -158 -48 -178
-160 -15 -85 -44 -123 -87 -118 -26 3 -27 4 -28 95 -1 87 -2 93 -31 123 -61
66 -154 86 -230 51 -87 -39 -120 -110 -113 -241 6 -96 14 -117 67 -175 21 -23
26 -31 11 -20 -31 24 -60 53 -60 58 0 18 -33 78 -38 70 -4 -5 -15 -14 -26 -20
-17 -10 -17 -10 3 -16 14 -3 19 -1 15 6 -5 8 -4 9 4 2 13 -12 4 -58 -9 -49 -5
3 -6 11 -2 17 5 8 2 8 -9 0 -8 -7 -17 -10 -20 -7 -3 3 -9 1 -13 -5 -3 -6 1
-11 9 -11 9 0 16 -4 16 -10 0 -20 2 -25 13 -39 10 -12 9 -12 -10 0 -14 8 -18
16 -12 20 8 4 8 9 -1 14 -13 8 -39 -22 -40 -47 0 -31 -40 -19 -53 14 -4 12
-12 15 -24 11 -17 -7 -17 -6 0 11 23 23 18 47 -11 62 -21 10 -22 13 -8 27 14
13 14 16 1 21 -8 3 -15 1 -15 -4 0 -5 -6 -8 -12 -6 -7 1 -10 1 -5 -1 4 -3 7
-16 7 -29 0 -14 4 -23 9 -20 5 3 12 -1 15 -9 4 -12 0 -14 -19 -11 -29 5 -30 6
32 -82 26 -36 49 -60 55 -56 6 4 8 2 4 -4 -3 -6 16 -34 44 -63 27 -29 50 -49
50 -44 0 4 10 -7 23 -26 12 -19 28 -35 35 -35 7 -1 15 -3 20 -4 4 -1 10 -2 13
-2 3 1 6 -5 6 -13 0 -7 -7 -11 -15 -7 -11 4 -11 -1 3 -21 9 -15 22 -27 28 -27
6 0 8 -3 4 -6 -3 -3 5 -25 18 -49 32 -56 52 -115 67 -197 l12 -68 62 0 61 0 7
61 c8 79 8 369 0 474 l-7 80 -72 -3 c-40 -2 -81 1 -91 6 -14 8 -3 9 41 5 33
-3 76 -1 96 5 l36 10 7 -97 c4 -54 6 -199 6 -324 l-1 -227 -78 0 -77 0 -12 73
c-26 147 -87 255 -239 417 -114 122 -153 175 -195 267 -39 87 -58 191 -58 319
0 134 10 174 76 311 42 89 69 128 121 184 127 135 248 204 381 220 48 6 89 13
92 16 10 10 206 -6 265 -22z m-3115 -35 c0 -5 -5 -10 -11 -10 -5 0 -7 5 -4 10
3 6 8 10 11 10 2 0 4 -4 4 -10z m7987 -12 c-3 -8 -6 -5 -6 6 -1 11 2 17 5 13
3 -3 4 -12 1 -19z m-7902 -88 c3 -5 1 -10 -4 -10 -6 0 -11 5 -11 10 0 6 2 10
4 10 3 0 8 -4 11 -10z m105 -10 c0 -5 -2 -10 -4 -10 -3 0 -8 5 -11 10 -3 6 -1
10 4 10 6 0 11 -4 11 -10z m4645 -11 c11 -16 1 -19 -13 -3 -7 8 -8 14 -3 14 5
0 13 -5 16 -11z m635 1 c0 -5 -4 -10 -10 -10 -5 0 -10 5 -10 10 0 6 5 10 10
10 6 0 10 -4 10 -10z m-4860 -114 c0 -3 -4 -8 -10 -11 -5 -3 -10 -1 -10 4 0 6
5 11 10 11 6 0 10 -2 10 -4z m-1443 -22 c-3 -3 -12 -4 -19 -1 -8 3 -5 6 6 6
11 1 17 -2 13 -5z m5428 -14 c3 -5 1 -10 -4 -10 -6 0 -11 5 -11 10 0 6 2 10 4
10 3 0 8 -4 11 -10z m-4115 -14 c0 -3 -4 -8 -10 -11 -5 -3 -10 -1 -10 4 0 6 5
11 10 11 6 0 10 -2 10 -4z m-985 -34 c-3 -3 -11 0 -18 7 -9 10 -8 11 6 5 10
-3 15 -9 12 -12z m8272 12 c-3 -3 -12 -4 -19 -1 -8 3 -5 6 6 6 11 1 17 -2 13
-5z m-8277 -53 c0 -5 -7 -11 -14 -14 -10 -4 -13 -1 -9 9 6 15 23 19 23 5z
m6665 -52 c-7 -11 -35 -12 -35 -1 0 4 9 8 20 9 11 1 18 -2 15 -8z m-5845 -19
c0 -5 -2 -10 -4 -10 -3 0 -8 5 -11 10 -3 6 -1 10 4 10 6 0 11 -4 11 -10z
m5980 6 c0 -3 -4 -8 -10 -11 -5 -3 -10 -1 -10 4 0 6 5 11 10 11 6 0 10 -2 10
-4z m-825 -16 c-3 -5 -11 -10 -16 -10 -6 0 -7 5 -4 10 3 6 11 10 16 10 6 0 7
-4 4 -10z m-5815 -10 c0 -5 -2 -10 -4 -10 -3 0 -8 5 -11 10 -3 6 -1 10 4 10 6
0 11 -4 11 -10z m6080 6 c0 -3 -4 -8 -10 -11 -5 -3 -10 -1 -10 4 0 6 5 11 10
11 6 0 10 -2 10 -4z m-4258 -41 c191 -32 238 -57 238 -127 0 -37 -52 -95 -91
-100 -50 -8 -282 33 -331 58 -43 22 -70 64 -64 98 9 42 58 91 96 95 3 1 71
-10 152 -24z m3143 -9 c46 -50 50 -89 11 -128 -17 -17 -44 -36 -61 -43 -40
-17 -215 -46 -288 -48 -54 -2 -61 0 -88 31 -34 37 -38 79 -12 123 21 35 64 53
166 69 42 7 77 16 77 19 0 3 37 7 81 9 81 3 81 3 114 -32z m2310 24 c-3 -5
-12 -10 -18 -10 -7 0 -6 4 3 10 19 12 23 12 15 0z m-485 -4 c0 -2 -7 -7 -16
-10 -8 -3 -12 -2 -9 4 6 10 25 14 25 6z m-5835 -126 c3 -5 -1 -10 -10 -10 -9
0 -13 5 -10 10 3 6 8 10 10 10 2 0 7 -4 10 -10z m6435 -10 c0 -5 -5 -10 -11
-10 -5 0 -7 5 -4 10 3 6 8 10 11 10 2 0 4 -4 4 -10z m-8719 -27 c13 -16 12
-17 -3 -4 -10 7 -18 15 -18 17 0 8 8 3 21 -13z m9662 -4 c-8 -8 -13 -7 -18 2
-5 8 -4 10 3 5 7 -4 12 -2 12 5 0 7 3 9 7 6 4 -4 2 -12 -4 -18z m-8055 -34
c-3 -3 -9 2 -12 12 -6 14 -5 15 5 6 7 -7 10 -15 7 -18z m4820 0 c-3 -3 -9 2
-12 12 -6 14 -5 15 5 6 7 -7 10 -15 7 -18z m1466 -3 c3 -5 -1 -9 -9 -9 -8 0
-12 4 -9 9 3 4 7 8 9 8 2 0 6 -4 9 -8z m-6749 -12 c3 -5 1 -10 -4 -10 -6 0
-11 5 -11 10 0 6 2 10 4 10 3 0 8 -4 11 -10z m510 -50 c-3 -5 -12 -10 -18 -10
-7 0 -6 4 3 10 19 12 23 12 15 0z m4995 -4 c0 -3 -4 -8 -10 -11 -5 -3 -10 -1
-10 4 0 6 5 11 10 11 6 0 10 -2 10 -4z m-410 -16 c0 -5 -2 -10 -4 -10 -3 0 -8
5 -11 10 -3 6 -1 10 4 10 6 0 11 -4 11 -10z m-5300 -30 c0 -5 -2 -10 -4 -10
-3 0 -8 5 -11 10 -3 6 -1 10 4 10 6 0 11 -4 11 -10z m3443 -72 c2 -26 1 -45
-4 -42 -5 3 -9 29 -8 57 1 59 5 54 12 -15z m487 -9 c0 -14 -7 -34 -16 -45 -15
-18 -15 -17 -10 15 3 18 6 45 6 60 0 20 2 23 10 11 5 -8 10 -27 10 -41z m867
5 c-3 -3 -12 -4 -19 -1 -8 3 -5 6 6 6 11 1 17 -2 13 -5z m1377 -50 c3 -8 2
-12 -4 -9 -6 3 -10 10 -10 16 0 14 7 11 14 -7z m1816 -28 c0 -3 -4 -8 -10 -11
-5 -3 -10 -1 -10 4 0 6 5 11 10 11 6 0 10 -2 10 -4z m-3060 -10 c0 -3 -4 -8
-10 -11 -5 -3 -10 -1 -10 4 0 6 5 11 10 11 6 0 10 -2 10 -4z m-4593 -48 c-3
-8 -6 -5 -6 6 -1 11 2 17 5 13 3 -3 4 -12 1 -19z m-1420 -14 c-3 -3 -12 -4
-19 -1 -8 3 -5 6 6 6 11 1 17 -2 13 -5z m2188 -22 c-3 -3 -11 0 -18 7 -9 10
-8 11 6 5 10 -3 15 -9 12 -12z m1940 -12 c3 -5 1 -10 -4 -10 -6 0 -11 5 -11
10 0 6 2 10 4 10 3 0 8 -4 11 -10z m230 -10 c-3 -5 -12 -10 -18 -10 -7 0 -6 4
3 10 19 12 23 12 15 0z m4800 -10 c3 -5 1 -10 -4 -10 -6 0 -11 5 -11 10 0 6 2
10 4 10 3 0 8 -4 11 -10z m-2136 -13 c8 -10 7 -14 -2 -14 -8 0 -14 6 -14 14 0
7 1 13 2 13 2 0 8 -6 14 -13z m-2661 -93 c14 -15 14 -16 -3 -13 -10 2 -20 10
-23 17 -5 17 6 15 26 -4z m-2931 -10 c-3 -3 -12 -4 -19 -1 -8 3 -5 6 6 6 11 1
17 -2 13 -5z m8073 -15 c0 -5 -4 -9 -10 -9 -5 0 -10 7 -10 16 0 8 5 12 10 9 6
-3 10 -10 10 -16z m-5180 -15 c0 -8 -19 -13 -24 -6 -3 5 1 9 9 9 8 0 15 -2 15
-3z m4286 -32 c-18 -16 -18 -16 -6 6 6 13 14 21 18 18 3 -4 -2 -14 -12 -24z
m-559 -8 c-3 -3 -12 -4 -19 -1 -8 3 -5 6 6 6 11 1 17 -2 13 -5z m-3617 -21 c0
-9 -7 -10 -27 -2 -27 10 -27 10 -8 -10 10 -12 13 -21 8 -21 -15 0 -36 28 -29
39 8 13 56 8 56 -6z m40 -33 c0 -21 -26 -34 -36 -18 -4 6 -3 8 3 5 6 -4 13 -1
16 7 4 10 0 12 -16 8 -18 -5 -19 -4 -7 10 18 19 40 12 40 -12z m3530 2 c0 -5
-7 -9 -15 -9 -8 0 -12 4 -9 9 3 4 9 8 15 8 5 0 9 -4 9 -8z m-4496 -10 c3 -5
-1 -9 -9 -9 -8 0 -12 4 -9 9 3 4 7 8 9 8 2 0 6 -4 9 -8z m873 2 c-3 -3 -12 -4
-19 -1 -8 3 -5 6 6 6 11 1 17 -2 13 -5z m47 -19 c3 -8 1 -15 -3 -15 -5 0 -11
7 -15 15 -3 8 -1 15 3 15 5 0 11 -7 15 -15z m3041 -35 c3 -6 -1 -7 -9 -4 -18
7 -21 14 -7 14 6 0 13 -4 16 -10z m-121 -15 c-7 -16 -24 -21 -24 -6 0 8 7 13
27 20 1 1 0 -6 -3 -14z m1766 1 c0 -3 -4 -8 -10 -11 -5 -3 -10 -1 -10 4 0 6 5
11 10 11 6 0 10 -2 10 -4z m37 -21 c0 -8 -4 -15 -9 -15 -10 0 -11 14 -1 23 9
10 10 9 10 -8z m-9358 -43 c-1 -15 -2 -15 -6 1 -2 9 -9 14 -15 11 -7 -4 -8 -2
-4 5 10 15 26 4 25 -17z m1711 14 c0 -11 -19 -15 -25 -6 -3 5 1 10 9 10 9 0
16 -2 16 -4z m6770 -36 c0 -5 -2 -10 -4 -10 -3 0 -8 5 -11 10 -3 6 -1 10 4 10
6 0 11 -4 11 -10z m-6795 -10 c3 -5 1 -10 -4 -10 -6 0 -11 5 -11 10 0 6 2 10
4 10 3 0 8 -4 11 -10z m1422 4 c-3 -3 -12 -4 -19 -1 -8 3 -5 6 6 6 11 1 17 -2
13 -5z m1110 -16 c-3 -8 -6 -5 -6 6 -1 11 2 17 5 13 3 -3 4 -12 1 -19z m2788
2 c-3 -5 -12 -10 -18 -10 -7 0 -6 4 3 10 19 12 23 12 15 0z m1630 -40 c3 -5 1
-10 -4 -10 -6 0 -11 5 -11 10 0 6 2 10 4 10 3 0 8 -4 11 -10z m-855 -25 c11
-13 10 -14 -4 -9 -9 3 -16 10 -16 15 0 13 6 11 20 -6z m-6139 -12 c13 -16 12
-17 -3 -4 -10 7 -18 15 -18 17 0 8 8 3 21 -13z m109 7 c0 -13 -11 -13 -30 0
-12 8 -11 10 8 10 12 0 22 -4 22 -10z m6755 -40 c3 -5 1 -10 -4 -10 -6 0 -11
5 -11 10 0 6 2 10 4 10 3 0 8 -4 11 -10z m1575 0 c0 -5 -2 -10 -4 -10 -3 0 -8
5 -11 10 -3 6 -1 10 4 10 6 0 11 -4 11 -10z m-10029 -43 c-10 -9 -11 -8 -5 6
3 10 9 15 12 12 3 -3 0 -11 -7 -18z m354 3 c3 -6 -1 -7 -9 -4 -18 7 -21 14 -7
14 6 0 13 -4 16 -10z m7792 -26 c-3 -3 -12 -4 -19 -1 -8 3 -5 6 6 6 11 1 17
-2 13 -5z m-7339 -139 c-3 -3 -9 2 -12 12 -6 14 -5 15 5 6 7 -7 10 -15 7 -18z
m259 9 c-3 -3 -12 -4 -19 -1 -8 3 -5 6 6 6 11 1 17 -2 13 -5z m6323 -4 c-18
-12 -43 -13 -36 -2 2 4 15 8 28 9 18 2 19 0 8 -7z m2030 -45 c0 -5 -5 -3 -10
5 -5 8 -10 20 -10 25 0 6 5 3 10 -5 5 -8 10 -19 10 -25z m-275 4 c-4 -5 -12
-9 -18 -8 -9 0 -8 2 1 6 6 2 9 10 6 15 -4 7 -2 8 5 4 6 -4 9 -12 6 -17z
m-7250 -9 c3 -5 1 -10 -4 -10 -6 0 -11 5 -11 10 0 6 2 10 4 10 3 0 8 -4 11
-10z m8122 -12 c-3 -8 -6 -5 -6 6 -1 11 2 17 5 13 3 -3 4 -12 1 -19z m-7004
-8 c3 -11 1 -20 -4 -20 -5 0 -9 9 -9 20 0 11 2 20 4 20 2 0 6 -9 9 -20z
m-2626 -32 c-3 -8 -6 -5 -6 6 -1 11 2 17 5 13 3 -3 4 -12 1 -19z m331 8 c-7
-8 -15 -12 -17 -11 -5 6 10 25 20 25 5 0 4 -6 -3 -14z m4482 -75 c0 -45 -18
-129 -37 -168 -18 -38 -63 -64 -110 -62 -21 1 -16 3 16 10 24 5 52 16 62 25
25 23 47 88 52 156 l4 56 -260 1 -260 1 6 -64 c8 -80 35 -137 80 -165 29 -18
52 -21 153 -23 l119 -1 -105 -7 c-87 -6 -112 -4 -145 10 -76 32 -115 102 -115
208 l0 52 270 0 270 0 0 -29z m-2660 9 c0 -5 -2 -10 -4 -10 -3 0 -8 5 -11 10
-3 6 -1 10 4 10 6 0 11 -4 11 -10z m256 -28 c-4 -3 -14 2 -24 12 -16 18 -16
18 6 6 13 -6 21 -14 18 -18z m6958 -17 c-4 -8 -11 -12 -16 -9 -6 4 -5 10 3 15
19 12 19 11 13 -6z m-9384 -5 c0 -5 -5 -10 -11 -10 -5 0 -7 5 -4 10 3 6 8 10
11 10 2 0 4 -4 4 -10z m4152 -220 c66 -112 108 -144 243 -182 l50 -14 0 -269
1 -270 -6 265 -5 264 -50 14 c-122 34 -134 41 -191 113 -67 82 -91 140 -98
239 l-5 75 17 -95 c11 -60 27 -112 44 -140z m-3972 166 c0 -2 -8 -10 -17 -17
-16 -13 -17 -12 -4 4 13 16 21 21 21 13z m4900 -8 c0 -6 -3 -8 -7 -5 -3 4 -11
2 -18 -3 -8 -7 -12 -6 -12 3 0 7 9 14 19 14 10 1 18 -3 18 -9z m3345 2 c-3 -5
-11 -10 -16 -10 -6 0 -7 5 -4 10 3 6 11 10 16 10 6 0 7 -4 4 -10z m-4645 -24
c0 -2 -8 -10 -17 -17 -16 -13 -17 -12 -4 4 13 16 21 21 21 13z m5705 -26 c3
-5 -1 -10 -10 -10 -9 0 -13 5 -10 10 3 6 8 10 10 10 2 0 7 -4 10 -10z m-4391
-21 c-8 -14 -21 -11 -21 5 0 8 6 12 14 9 7 -3 10 -9 7 -14z m-98 -83 c-14 -29
-38 -63 -52 -77 -22 -20 -21 -16 9 26 20 28 41 73 49 100 9 37 14 44 16 27 2
-13 -8 -47 -22 -76z m-926 61 c6 -11 7 -16 1 -13 -5 4 -13 1 -17 -5 -4 -7 -3
-9 2 -6 6 3 16 2 24 -4 10 -6 11 -9 3 -9 -16 0 -17 -26 -2 -36 6 -3 15 -1 19
5 5 9 10 8 20 -4 11 -13 10 -15 -4 -9 -11 4 -16 1 -16 -12 0 -16 -2 -17 -10
-4 -6 9 -21 14 -40 12 -28 -3 -35 4 -31 31 0 4 -3 7 -9 7 -5 0 -10 -10 -10
-22 -1 -20 -2 -21 -13 -8 -7 9 -21 14 -32 12 l-20 -4 20 16 c20 15 20 15 -1
16 -11 0 -29 9 -39 20 -17 19 -17 19 5 15 12 -2 30 -7 40 -10 12 -4 22 0 28
12 14 25 66 25 82 0z m-2980 3 c0 -5 -5 -10 -11 -10 -5 0 -7 5 -4 10 3 6 8 10
11 10 2 0 4 -4 4 -10z m7480 -10 c0 -5 -5 -10 -11 -10 -5 0 -7 5 -4 10 3 6 8
10 11 10 2 0 4 -4 4 -10z m-4795 -14 c39 -17 75 -68 75 -108 0 -15 -9 -51 -21
-80 -21 -55 -21 -72 6 -253 l5 -30 -10 30 c-5 17 -15 69 -21 117 -11 82 -10
91 10 137 11 27 21 60 21 73 0 37 -37 88 -76 104 -46 19 -86 11 -129 -28 -41
-35 -52 -78 -36 -145 6 -27 18 -102 27 -168 8 -66 26 -164 40 -219 14 -54 23
-100 21 -102 -11 -11 -57 200 -83 381 -27 194 -27 197 -5 233 41 65 107 86
176 58z m2240 4 c-3 -5 -12 -10 -18 -10 -7 0 -6 4 3 10 19 12 23 12 15 0z
m185 -50 c0 -5 -2 -10 -4 -10 -3 0 -8 5 -11 10 -3 6 -1 10 4 10 6 0 11 -4 11
-10z m780 -10 c0 -5 -4 -10 -10 -10 -5 0 -10 5 -10 10 0 6 5 10 10 10 6 0 10
-4 10 -10z m-5679 -33 c-10 -9 -11 -8 -5 6 3 10 9 15 12 12 3 -3 0 -11 -7 -18z
m1429 13 c0 -5 -5 -10 -11 -10 -5 0 -7 5 -4 10 3 6 8 10 11 10 2 0 4 -4 4 -10z
m-2360 -25 c7 -9 8 -15 2 -15 -5 0 -12 7 -16 15 -3 8 -4 15 -2 15 2 0 9 -7 16
-15z m4980 6 c0 -17 -18 -21 -24 -6 -3 9 0 15 9 15 8 0 15 -4 15 -9z m174 0
c3 -5 -1 -11 -9 -14 -9 -4 -12 -1 -8 9 6 16 10 17 17 5z m150 -10 c3 -5 -1
-11 -9 -15 -15 -6 -29 7 -18 18 9 9 21 8 27 -3z m-98 -25 c1 -7 -4 -13 -11
-13 -7 0 -11 7 -10 16 2 9 4 18 4 20 2 8 15 -10 17 -23z m-321 4 c3 -5 1 -10
-4 -10 -6 0 -11 5 -11 10 0 6 2 10 4 10 3 0 8 -4 11 -10z m-3635 -10 c0 -5 -5
-10 -11 -10 -5 0 -7 5 -4 10 3 6 8 10 11 10 2 0 4 -4 4 -10z m3285 -10 c-3 -5
-12 -10 -18 -10 -7 0 -6 4 3 10 19 12 23 12 15 0z m-50 -24 c-22 -15 -109 -46
-128 -45 -7 0 16 11 51 23 35 13 66 27 69 30 4 3 11 6 17 6 6 0 2 -6 -9 -14z
m4505 -26 c8 -5 12 -11 10 -14 -3 -2 -14 2 -24 10 -22 15 -10 19 14 4z m-4653
-26 c-3 -3 -12 -4 -19 -1 -8 3 -5 6 6 6 11 1 17 -2 13 -5z m2534 -11 c13 -16
12 -17 -3 -4 -10 7 -18 15 -18 17 0 8 8 3 21 -13z m-2591 -395 l-5 -383 -3
370 c-2 329 0 395 10 395 2 0 1 -172 -2 -382z m759 372 c64 -18 121 -96 121
-164 0 -42 -36 -89 -92 -117 -28 -14 -40 -28 -45 -50 -3 -16 -8 -28 -10 -25
-3 2 -2 17 1 33 5 20 19 35 52 52 87 47 106 107 59 188 -31 52 -74 77 -135 77
-45 0 -128 -31 -154 -56 -40 -41 -47 -101 -15 -142 l21 -26 -22 -123 c-32
-184 -50 -246 -72 -258 -11 -6 -22 -8 -25 -6 -2 3 4 8 15 11 23 8 40 70 71
256 l20 115 -21 33 c-45 73 -2 154 102 192 63 22 82 24 129 10z m-3209 -10 c0
-5 -2 -10 -4 -10 -3 0 -8 5 -11 10 -3 6 -1 10 4 10 6 0 11 -4 11 -10z m1050
-11 c-67 -7 -120 -24 -180 -57 -116 -64 -160 -107 -207 -200 -13 -26 -21 -36
-17 -22 27 100 144 208 283 261 64 24 139 38 161 30 8 -3 -10 -8 -40 -12z
m2710 -1 c110 -33 222 -119 268 -206 18 -33 32 -66 32 -72 0 -7 -14 14 -31 48
-58 117 -204 217 -335 229 -35 3 -64 9 -64 13 0 10 84 2 130 -12z m1255 -134
c22 -2 85 -11 140 -19 55 -8 125 -17 155 -20 75 -9 189 -43 223 -67 45 -32 57
-67 57 -170 0 -144 -7 -135 118 -140 99 -3 110 -5 152 -33 31 -21 54 -47 73
-85 l27 -54 -2 -1651 c-3 -1588 -4 -1652 -22 -1700 -50 -132 -96 -156 -323
-163 -104 -3 -163 -1 -163 5 0 6 35 9 88 8 134 -2 268 11 301 31 42 25 78 88
96 168 14 63 15 252 13 1696 l-3 1625 -27 47 c-22 36 -40 52 -82 72 -48 23
-68 26 -155 26 l-101 0 0 114 c0 133 -6 154 -54 191 -55 42 -114 53 -641 125
l-70 9 80 -5 c44 -3 98 -7 120 -10z m-3310 -209 c11 -22 31 -45 45 -52 17 -9
20 -13 8 -13 -9 0 -24 7 -33 16 -18 19 -73 136 -81 174 -3 14 5 0 18 -30 13
-30 33 -73 43 -95z m-616 131 c-2 -2 -24 -6 -48 -9 -29 -4 -40 -2 -30 4 13 8
88 14 78 5z m5446 -46 c3 -5 1 -10 -4 -10 -6 0 -11 5 -11 10 0 6 2 10 4 10 3
0 8 -4 11 -10z m80 -10 c-3 -5 -12 -10 -18 -10 -7 0 -6 4 3 10 19 12 23 12 15
0z m-6166 -72 c-15 -103 -10 -199 14 -268 l22 -65 -42 -51 c-106 -126 -153
-244 -153 -380 0 -111 14 -172 62 -274 33 -69 56 -100 122 -165 121 -119 249
-185 362 -185 l51 0 38 -77 c71 -146 220 -266 381 -308 115 -30 301 -14 372
31 13 8 31 12 41 9 22 -7 150 -145 238 -257 70 -88 167 -246 244 -398 l54
-105 3 -528 c1 -290 0 -527 -4 -527 -4 0 -75 36 -158 79 -523 273 -1009 392
-1667 408 -320 8 -556 -13 -756 -67 -58 -16 -261 -87 -356 -125 -16 -7 -17 72
-15 1601 l3 1609 90 17 c255 48 543 75 841 77 l220 1 -7 -52z m4331 42 c270
-23 601 -68 617 -83 8 -9 15 -3217 6 -3217 -5 0 -74 22 -153 49 -641 217
-1406 197 -2144 -56 -193 -66 -330 -127 -518 -228 -77 -41 -142 -75 -144 -75
-2 0 -4 205 -4 456 0 507 5 561 71 733 87 229 215 426 388 596 l71 69 87 -29
c164 -53 311 -46 458 25 106 51 170 114 226 224 41 81 46 86 76 86 167 0 393
127 492 276 88 131 130 321 102 466 -17 86 -70 191 -135 265 l-54 62 20 63
c21 68 29 223 15 291 l-8 37 208 0 c114 0 260 -5 323 -10z m-3525 -58 c11 -6
14 -12 7 -12 -7 0 -27 15 -45 33 -18 17 -21 22 -7 11 14 -12 34 -26 45 -32z
m2824 -66 c1 -76 -6 -51 -12 44 -4 61 -3 74 3 45 5 -22 9 -62 9 -89z m-3442
92 c-3 -8 -6 -5 -6 6 -1 11 2 17 5 13 3 -3 4 -12 1 -19z m-10 -125 c-2 -21 -4
-4 -4 37 0 41 2 58 4 38 2 -21 2 -55 0 -75z m2548 42 c-4 -31 -9 -54 -12 -51
-3 2 -1 30 2 61 4 31 9 54 12 51 3 -2 1 -30 -2 -61z m-5865 45 c0 -5 -2 -10
-4 -10 -3 0 -8 5 -11 10 -3 6 -1 10 4 10 6 0 11 -4 11 -10z m4159 -26 c8 -7
-104 -2 -134 6 -17 4 5 5 50 2 44 -2 82 -6 84 -8z m-454 -34 c10 -11 16 -20
13 -20 -3 0 -13 9 -23 20 -10 11 -16 20 -13 20 3 0 13 -9 23 -20z m820 5 c39
-17 21 -18 -25 0 -19 7 -28 14 -20 14 8 0 29 -6 45 -14z m-3422 -25 c-3 -12
-8 -19 -11 -16 -5 6 5 36 12 36 2 0 2 -9 -1 -20z m5390 -43 c18 -14 40 -40 50
-58 13 -24 14 -28 3 -14 -45 57 -81 85 -115 91 -54 9 -62 15 -13 10 25 -2 56
-14 75 -29z m-124 19 c-2 -2 -15 -9 -29 -15 -24 -11 -24 -11 -6 3 16 13 49 24
35 12z m1981 -4 c0 -5 -7 -9 -15 -9 -8 0 -15 4 -15 9 0 4 7 8 15 8 8 0 15 -4
15 -8z m-3660 -28 c0 -2 -9 0 -20 6 -11 6 -20 13 -20 16 0 2 9 0 20 -6 11 -6
20 -13 20 -16z m1174 -26 c7 -5 5 -8 -6 -8 -13 0 -18 7 -17 28 1 21 2 22 6 7
3 -11 10 -23 17 -27z m-2537 0 c-3 -7 -5 -2 -5 12 0 14 2 19 5 13 2 -7 2 -19
0 -25z m2968 12 c-12 -14 -29 -19 -54 -18 l-36 1 37 4 c20 2 42 11 48 19 7 8
15 14 18 14 3 0 -3 -9 -13 -20z m-187 -7 c-43 -2 -113 -2 -155 0 -43 1 -8 3
77 3 85 0 120 -2 78 -3z m-2243 -13 c13 -6 15 -9 5 -9 -8 0 -22 4 -30 9 -18
12 -2 12 25 0z m1072 -37 c-3 -10 -5 -2 -5 17 0 19 2 27 5 18 2 -10 2 -26 0
-35z m4554 24 c-10 -9 -11 -8 -5 6 3 10 9 15 12 12 3 -3 0 -11 -7 -18z m102
-2 c-3 -9 -8 -14 -10 -11 -3 3 -2 9 2 15 9 16 15 13 8 -4z m-5670 -2 c-7 -2
-19 -2 -25 0 -7 3 -2 5 12 5 14 0 19 -2 13 -5z m70 -10 c-7 -2 -21 -2 -30 0
-10 3 -4 5 12 5 17 0 24 -2 18 -5z m270 -10 c-40 -2 -107 -2 -150 0 -43 1 -10
3 72 3 83 0 118 -2 78 -3z m114 -9 c-3 -3 -12 -4 -19 -1 -8 3 -5 6 6 6 11 1
17 -2 13 -5z m2190 -66 c-2 -13 -4 -3 -4 22 0 25 2 35 4 23 2 -13 2 -33 0 -45z
m-1018 38 c-10 -9 -89 -46 -89 -41 0 6 72 44 84 45 5 0 7 -2 5 -4z m-5149 -30
c0 -11 -19 -15 -25 -6 -3 5 1 10 9 10 9 0 16 -2 16 -4z m4537 -18 c-3 -8 -6
-5 -6 6 -1 11 2 17 5 13 3 -3 4 -12 1 -19z m-4577 6 c0 -8 -19 -13 -24 -6 -3
5 1 9 9 9 8 0 15 -2 15 -3z m4577 -71 c-3 -10 -5 -2 -5 17 0 19 2 27 5 18 2
-10 2 -26 0 -35z m483 42 c0 -2 -10 -9 -22 -15 -22 -11 -22 -10 -4 4 21 17 26
19 26 11z m1140 0 c0 -9 -92 -105 -99 -105 -6 0 88 106 97 109 1 1 2 -1 2 -4z
m-3216 -78 c-32 -34 -61 -61 -63 -60 -5 4 110 123 118 123 2 0 -22 -28 -55
-63z m2764 46 c-26 -2 -71 -2 -100 0 -29 2 -8 3 47 3 55 0 79 -1 53 -3z m-175
-10 c-7 -2 -21 -2 -30 0 -10 3 -4 5 12 5 17 0 24 -2 18 -5z m353 -25 l29 -33
-30 27 c-16 14 -39 28 -50 31 -19 5 -19 5 1 6 11 0 33 -13 50 -31z m-433 15
c-7 -2 -19 -2 -25 0 -7 3 -2 5 12 5 14 0 19 -2 13 -5z m-523 -6 c0 -2 -10 -12
-22 -23 l-23 -19 19 23 c18 21 26 27 26 19z m455 -7 c-11 -5 -29 -8 -40 -8
-16 0 -15 2 5 8 34 11 60 11 35 0z m-105 -30 c-8 -5 -19 -10 -25 -10 -5 0 -3
5 5 10 8 5 20 10 25 10 6 0 3 -5 -5 -10z m1125 -30 c21 -22 37 -40 34 -40 -3
0 -23 18 -44 40 -21 22 -37 40 -34 40 3 0 23 -18 44 -40z m-1175 10 c-8 -5
-19 -10 -25 -10 -5 0 -3 5 5 10 8 5 20 10 25 10 6 0 3 -5 -5 -10z m783 3 c-13
-2 -35 -2 -50 0 -16 2 -5 4 22 4 28 0 40 -2 28 -4z m-1153 -6 c0 -2 -19 -21
-42 -42 l-43 -40 40 43 c36 39 45 47 45 39z m330 -12 c0 -2 -13 -11 -30 -20
-38 -19 -40 -11 -2 9 31 17 32 18 32 11z m-809 -42 c13 -16 12 -17 -3 -4 -17
13 -22 21 -14 21 2 0 10 -8 17 -17z m739 3 c0 -2 -8 -10 -17 -17 -16 -13 -17
-12 -4 4 13 16 21 21 21 13z m-5470 -16 c0 -5 -2 -10 -4 -10 -3 0 -8 5 -11 10
-3 6 -1 10 4 10 6 0 11 -4 11 -10z m3778 3 c-10 -2 -28 -2 -40 0 -13 2 -5 4
17 4 22 1 32 -1 23 -4z m130 0 c-10 -2 -28 -2 -40 0 -13 2 -5 4 17 4 22 1 32
-1 23 -4z m-730 -48 c-6 -14 -13 -23 -15 -21 -5 5 15 46 22 46 3 0 -1 -11 -7
-25z m1925 11 c3 -8 0 -19 -7 -25 -10 -9 -12 -6 -8 14 5 29 8 31 15 11z m1727
-6 c6 -11 8 -20 6 -20 -3 0 -10 9 -16 20 -6 11 -8 20 -6 20 3 0 10 -9 16 -20z
m-3231 6 c-2 -2 -15 -9 -29 -15 -24 -11 -24 -11 -6 3 16 13 49 24 35 12z
m-2210 -1441 c0 -914 -3 -1435 -9 -1435 -6 0 -10 521 -10 1435 0 880 4 1435
10 1435 6 0 9 -555 9 -1435z m2088 1389 c-3 -3 -12 -4 -19 -1 -8 3 -5 6 6 6
11 1 17 -2 13 -5z m-67 -17 c0 -2 -15 -16 -32 -33 l-33 -29 29 33 c28 30 36
37 36 29z m761 -14 c13 -16 12 -17 -3 -4 -10 7 -18 15 -18 17 0 8 8 3 21 -13z
m5849 7 c0 -5 -5 -10 -11 -10 -5 0 -7 5 -4 10 3 6 8 10 11 10 2 0 4 -4 4 -10z
m-4319 -27 c13 -16 12 -17 -3 -4 -10 7 -18 15 -18 17 0 8 8 3 21 -13z m-2564
-45 c-3 -7 -5 -2 -5 12 0 14 2 19 5 13 2 -7 2 -19 0 -25z m2613 7 c13 -14 21
-25 18 -25 -2 0 -15 11 -28 25 -13 14 -21 25 -18 25 2 0 15 -11 28 -25z m-431
12 c-2 -2 -35 -32 -74 -67 l-70 -64 65 67 c35 37 69 67 74 67 5 0 7 -1 5 -3z
m-1078 -24 c13 -16 12 -17 -3 -4 -17 13 -22 21 -14 21 2 0 10 -8 17 -17z
m-468 0 c-7 -2 -21 -2 -30 0 -10 3 -4 5 12 5 17 0 24 -2 18 -5z m125 0 c-10
-2 -26 -2 -35 0 -10 3 -2 5 17 5 19 0 27 -2 18 -5z m1532 -13 c8 -5 11 -10 5
-10 -5 0 -17 5 -25 10 -8 5 -10 10 -5 10 6 0 17 -5 25 -10z m-2093 -47 c-3
-10 -5 -2 -5 17 0 19 2 27 5 18 2 -10 2 -26 0 -35z m649 31 c18 -14 18 -14 -6
-3 -31 14 -36 19 -24 19 6 0 19 -7 30 -16z m293 -28 c-3 -3 -11 5 -18 17 -13
21 -12 21 5 5 10 -10 16 -20 13 -22z m1312 -53 c13 -16 12 -17 -3 -4 -10 7
-18 15 -18 17 0 8 8 3 21 -13z m289 -8 c13 -14 21 -25 18 -25 -2 0 -15 11 -28
25 -13 14 -21 25 -18 25 2 0 15 -11 28 -25z m-2743 -27 c-3 -7 -5 -2 -5 12 0
14 2 19 5 13 2 -7 2 -19 0 -25z m234 15 c13 -16 12 -17 -3 -4 -17 13 -22 21
-14 21 2 0 10 -8 17 -17z m730 0 c13 -16 12 -17 -3 -4 -10 7 -18 15 -18 17 0
8 8 3 21 -13z m302 10 c-7 -2 -21 -2 -30 0 -10 3 -4 5 12 5 17 0 24 -2 18 -5z
m60 -10 c-7 -2 -19 -2 -25 0 -7 3 -2 5 12 5 14 0 19 -2 13 -5z m707 3 c0 -2
-8 -10 -17 -17 -16 -13 -17 -12 -4 4 13 16 21 21 21 13z m-283 -118 c-2 -24
-4 -7 -4 37 0 44 2 63 4 43 2 -21 2 -57 0 -80z m-1476 75 c13 -16 12 -17 -3
-4 -17 13 -22 21 -14 21 2 0 10 -8 17 -17z m2274 -23 c21 -22 37 -40 34 -40
-3 0 -23 18 -44 40 -21 22 -37 40 -34 40 3 0 23 -18 44 -40z m249 11 c-2 -3
-12 3 -22 13 -16 17 -16 18 5 5 12 -7 20 -15 17 -18z m-1807 -13 c-3 -8 -6 -5
-6 6 -1 11 2 17 5 13 3 -3 4 -12 1 -19z m1900 16 c-3 -3 -12 -4 -19 -1 -8 3
-5 6 6 6 11 1 17 -2 13 -5z m-924 -49 c-3 -9 -8 -14 -10 -11 -3 3 -2 9 2 15 9
16 15 13 8 -4z m-382 -12 c13 -16 12 -17 -3 -4 -17 13 -22 21 -14 21 2 0 10
-8 17 -17z m44 -33 c10 -11 16 -20 13 -20 -3 0 -13 9 -23 20 -10 11 -16 20
-13 20 3 0 13 -9 23 -20z m986 3 c13 -16 12 -17 -3 -4 -17 13 -22 21 -14 21 2
0 10 -8 17 -17z m-1726 -13 c-3 -5 -12 -10 -18 -10 -7 0 -6 4 3 10 19 12 23
12 15 0z m862 -62 c-2 -13 -4 -5 -4 17 -1 22 1 32 4 23 2 -10 2 -28 0 -40z
m-557 33 c-25 -4 -52 -10 -60 -15 -8 -4 -6 0 4 8 12 10 37 15 60 15 l41 -2
-45 -6z m117 -7 c-3 -3 -12 -4 -19 -1 -8 3 -5 6 6 6 11 1 17 -2 13 -5z m-4227
-59 c0 -5 -5 -3 -10 5 -5 8 -10 20 -10 25 0 6 5 3 10 -5 5 -8 10 -19 10 -25z
m5727 -7 c-3 -8 -6 -5 -6 6 -1 11 2 17 5 13 3 -3 4 -12 1 -19z m-1346 -5 c13
-16 12 -17 -3 -4 -10 7 -18 15 -18 17 0 8 8 3 21 -13z m-391 4 c0 -2 -12 -14
-27 -28 l-28 -24 24 28 c23 25 31 32 31 24z m678 -22 c-3 -3 -9 2 -12 12 -6
14 -5 15 5 6 7 -7 10 -15 7 -18z m-208 -50 c30 -30 52 -55 49 -55 -2 0 -29 25
-59 55 -30 30 -52 55 -49 55 2 0 29 -25 59 -55z m1047 13 c-3 -7 -5 -2 -5 12
0 14 2 19 5 13 2 -7 2 -19 0 -25z m210 0 c-3 -7 -5 -2 -5 12 0 14 2 19 5 13 2
-7 2 -19 0 -25z m-5147 -32 c0 -3 -4 -8 -10 -11 -5 -3 -10 -1 -10 4 0 6 5 11
10 11 6 0 10 -2 10 -4z m5287 -128 c-3 -7 -5 -2 -5 12 0 14 2 19 5 13 2 -7 2
-19 0 -25z m-5337 2 c0 -5 -5 -10 -11 -10 -5 0 -7 5 -4 10 3 6 8 10 11 10 2 0
4 -4 4 -10z m4110 -115 c0 -5 -5 -3 -10 5 -5 8 -10 20 -10 25 0 6 5 3 10 -5 5
-8 10 -19 10 -25z m-1039 -52 c13 -16 12 -17 -3 -4 -17 13 -22 21 -14 21 2 0
10 -8 17 -17z m1066 -65 c-3 -8 -6 -5 -6 6 -1 11 2 17 5 13 3 -3 4 -12 1 -19z
m10 -60 c-3 -8 -6 -5 -6 6 -1 11 2 17 5 13 3 -3 4 -12 1 -19z m200 -155 c-2
-32 -3 -6 -3 57 0 63 1 89 3 58 2 -32 2 -84 0 -115z m-556 120 c13 -16 12 -17
-3 -4 -17 13 -22 21 -14 21 2 0 10 -8 17 -17z m80 -70 c13 -16 12 -17 -3 -4
-17 13 -22 21 -14 21 2 0 10 -8 17 -17z m120 -130 c13 -16 12 -17 -3 -4 -17
13 -22 21 -14 21 2 0 10 -8 17 -17z m-4516 -52 c-3 -6 -11 -11 -16 -11 -5 0
-4 6 3 14 14 16 24 13 13 -3z m4556 2 c13 -16 12 -17 -3 -4 -17 13 -22 21 -14
21 2 0 10 -8 17 -17z m3949 -123 c0 -5 -2 -10 -4 -10 -3 0 -8 5 -11 10 -3 6
-1 10 4 10 6 0 11 -4 11 -10z m-7770 -30 c0 -5 -5 -10 -11 -10 -5 0 -7 5 -4
10 3 6 8 10 11 10 2 0 4 -4 4 -10z m3938 -15 c-3 -3 -9 2 -12 12 -6 14 -5 15
5 6 7 -7 10 -15 7 -18z m206 0 c-4 -8 -8 -15 -10 -15 -2 0 -4 7 -4 15 0 8 4
15 10 15 5 0 7 -7 4 -15z m-5096 -79 c-7 -8 -15 -12 -17 -11 -5 6 10 25 20 25
5 0 4 -6 -3 -14z m1342 -6 c0 -5 -5 -10 -11 -10 -5 0 -7 5 -4 10 3 6 8 10 11
10 2 0 4 -4 4 -10z m-1373 -27 c-4 -3 -2 -12 5 -20 8 -11 7 -12 -6 -7 -9 3
-16 9 -16 13 0 9 11 21 18 21 3 0 2 -3 -1 -7z m-50 -589 c-3 -3 -12 -4 -19 -1
-8 3 -5 6 6 6 11 1 17 -2 13 -5z m10110 -326 c-3 -8 -6 -5 -6 6 -1 11 2 17 5
13 3 -3 4 -12 1 -19z m-8693 -39 c-3 -5 -10 -7 -15 -3 -5 3 -7 10 -3 15 3 5
10 7 15 3 5 -3 7 -10 3 -15z m7326 -269 c0 -5 -2 -10 -4 -10 -3 0 -8 5 -11 10
-3 6 -1 10 4 10 6 0 11 -4 11 -10z m-7271 -173 c0 -56 4 -117 10 -136 14 -45
7 -52 -8 -9 -16 46 -27 263 -13 254 7 -4 11 -46 11 -109z m8402 30 c-10 -9
-11 -8 -5 6 3 10 9 15 12 12 3 -3 0 -11 -7 -18z m-291 3 c0 -5 -5 -10 -11 -10
-5 0 -7 5 -4 10 3 6 8 10 11 10 2 0 4 -4 4 -10z m-9600 -164 c0 -3 -4 -8 -10
-11 -5 -3 -10 -1 -10 4 0 6 5 11 10 11 6 0 10 -2 10 -4z m1566 -121 c17 -17
49 -36 71 -43 30 -9 310 -12 1123 -12 596 0 1080 -3 1076 -7 -3 -4 -490 -6
-1081 -6 -990 1 -1079 3 -1127 19 -52 17 -86 43 -107 82 -15 28 -13 43 2 17 7
-11 26 -34 43 -50z m-858 -20 c-3 -3 -9 2 -12 12 -6 14 -5 15 5 6 7 -7 10 -15
7 -18z m279 -27 c-3 -8 -6 -5 -6 6 -1 11 2 17 5 13 3 -3 4 -12 1 -19z m3060
-15 c6 -5 -36 -9 -93 -9 -57 -1 -104 2 -104 6 0 10 182 12 197 3z m110 -7 c4
-3 -16 -6 -43 -6 -31 0 -44 3 -36 9 15 9 69 7 79 -3z m1930 6 c-10 -4 -122 -9
-249 -10 l-232 -2 -67 -65 c-74 -72 -119 -96 -235 -125 -92 -24 -202 -26 -334
-5 -155 23 -253 64 -355 149 l-49 41 -116 6 -115 5 112 2 112 2 68 -52 c146
-111 274 -150 498 -152 110 -1 153 3 200 17 95 30 156 66 215 128 46 49 61 58
95 61 88 7 469 7 452 0z m629 1 c-9 -10 -606 -10 -606 0 0 4 138 7 307 7 168
0 303 -3 299 -7z m60 -6 c4 -4 -2 -7 -14 -7 -11 0 -24 5 -27 10 -7 11 30 8 41
-3z m1384 4 c17 -6 -205 -9 -675 -8 l-700 2 530 5 c292 3 595 6 675 8 80 2
156 -1 170 -7z m-3837 -8 c-7 -2 -19 -2 -25 0 -7 3 -2 5 12 5 14 0 19 -2 13
-5z m-3923 -57 c0 -2 -7 -7 -16 -10 -8 -3 -12 -2 -9 4 6 10 25 14 25 6z m1437
-58 c-3 -8 -6 -5 -6 6 -1 11 2 17 5 13 3 -3 4 -12 1 -19z m5263 8 c0 -11 -19
-15 -25 -6 -3 5 1 10 9 10 9 0 16 -2 16 -4z m-6070 -46 c0 -11 -2 -20 -4 -20
-2 0 -6 9 -9 20 -3 11 -1 20 4 20 5 0 9 -9 9 -20z m287 -35 c0 -8 -4 -12 -9
-9 -5 3 -6 10 -3 15 9 13 12 11 12 -6z m8833 -6 c0 -5 -4 -9 -10 -9 -5 0 -10
7 -10 16 0 8 5 12 10 9 6 -3 10 -10 10 -16z m-8920 1 c0 -5 -2 -10 -4 -10 -3
0 -8 5 -11 10 -3 6 -1 10 4 10 6 0 11 -4 11 -10z m1245 -70 c3 -6 -1 -7 -9 -4
-18 7 -21 14 -7 14 6 0 13 -4 16 -10z m4625 -14 c0 -2 -7 -7 -16 -10 -8 -3
-12 -2 -9 4 6 10 25 14 25 6z m-7053 -31 c0 -8 -4 -12 -9 -9 -4 3 -8 9 -8 15
0 5 4 9 8 9 5 0 9 -7 9 -15z m553 -19 c0 -3 -4 -8 -10 -11 -5 -3 -10 -1 -10 4
0 6 5 11 10 11 6 0 10 -2 10 -4z m9221 -53 c-12 -20 -14 -14 -5 12 4 9 9 14
11 11 3 -2 0 -13 -6 -23z m-1051 -3 c0 -5 -2 -10 -4 -10 -3 0 -8 5 -11 10 -3
6 -1 10 4 10 6 0 11 -4 11 -10z m-6003 -32 c-3 -8 -6 -5 -6 6 -1 11 2 17 5 13
3 -3 4 -12 1 -19z m-2337 8 c0 -2 -8 -10 -17 -17 -16 -13 -17 -12 -4 4 13 16
21 21 21 13z m7800 -6 c0 -5 -5 -10 -11 -10 -5 0 -7 5 -4 10 3 6 8 10 11 10 2
0 4 -4 4 -10z m-1676 -18 c3 -5 -1 -9 -9 -9 -8 0 -12 4 -9 9 3 4 7 8 9 8 2 0
6 -4 9 -8z m-2544 -22 c0 -5 -2 -10 -4 -10 -3 0 -8 5 -11 10 -3 6 -1 10 4 10
6 0 11 -4 11 -10z m4095 -10 c3 -5 1 -10 -4 -10 -6 0 -11 5 -11 10 0 6 2 10 4
10 3 0 8 -4 11 -10z m1702 4 c-3 -3 -12 -4 -19 -1 -8 3 -5 6 6 6 11 1 17 -2
13 -5z m-487 -39 c-7 -8 -17 -15 -22 -15 -11 0 14 29 26 30 5 0 3 -7 -4 -15z
m77 0 c0 -8 -4 -15 -9 -15 -10 0 -11 14 -1 23 9 10 10 9 10 -8z m-5363 -11 c3
-8 2 -12 -4 -9 -6 3 -10 10 -10 16 0 14 7 11 14 -7z m1136 -24 c0 -5 -2 -10
-4 -10 -3 0 -8 5 -11 10 -3 6 -1 10 4 10 6 0 11 -4 11 -10z m3590 -60 c0 -5
-2 -10 -4 -10 -3 0 -8 5 -11 10 -3 6 -1 10 4 10 6 0 11 -4 11 -10z m-1396 -25
c-4 -8 -8 -15 -10 -15 -2 0 -4 7 -4 15 0 8 4 15 10 15 5 0 7 -7 4 -15z m1306
1 c0 -3 -4 -8 -10 -11 -5 -3 -10 -1 -10 4 0 6 5 11 10 11 6 0 10 -2 10 -4z
m-5073 -31 c0 -8 -4 -12 -9 -9 -5 3 -6 10 -3 15 9 13 12 11 12 -6z m-2687 -85
c0 -5 -7 -10 -16 -10 -8 0 -12 5 -9 10 3 6 10 10 16 10 5 0 9 -4 9 -10z m315
-40 c3 -5 -1 -10 -10 -10 -9 0 -13 5 -10 10 3 6 8 10 10 10 2 0 7 -4 10 -10z
m6795 -17 c0 -19 -13 -9 -16 12 -1 8 2 13 7 9 5 -3 9 -12 9 -21z m1266 2 c1
-8 -2 -13 -7 -9 -5 3 -9 12 -9 21 0 19 13 9 16 -12z m-7461 -13 c-3 -3 -11 0
-18 7 -9 10 -8 11 6 5 10 -3 15 -9 12 -12z m4730 8 c3 -5 1 -10 -4 -10 -6 0
-11 5 -11 10 0 6 2 10 4 10 3 0 8 -4 11 -10z m2279 -18 c3 -5 -1 -9 -9 -9 -8
0 -15 4 -15 9 0 4 4 8 9 8 6 0 12 -4 15 -8z m-6714 -22 c0 -5 -2 -10 -4 -10
-3 0 -8 5 -11 10 -3 6 -1 10 4 10 6 0 11 -4 11 -10z m706 -15 c-3 -20 -16 -31
-16 -13 0 13 8 28 16 28 1 0 1 -7 0 -15z m71 -11 c-3 -3 -12 -4 -19 -1 -8 3
-5 6 6 6 11 1 17 -2 13 -5z m4060 -16 c-3 -8 -6 -5 -6 6 -1 11 2 17 5 13 3 -3
4 -12 1 -19z m523 8 c0 -3 -4 -8 -10 -11 -5 -3 -10 -1 -10 4 0 6 5 11 10 11 6
0 10 -2 10 -4z m-5350 -20 c0 -3 -4 -8 -10 -11 -5 -3 -10 -1 -10 4 0 6 5 11
10 11 6 0 10 -2 10 -4z m4064 -22 c3 -8 2 -12 -4 -9 -6 3 -10 10 -10 16 0 14
7 11 14 -7z m-914 -44 c0 -5 -5 -10 -11 -10 -5 0 -7 5 -4 10 3 6 8 10 11 10 2
0 4 -4 4 -10z m-4520 -26 c0 -8 -4 -12 -10 -9 -5 3 -10 10 -10 16 0 5 5 9 10
9 6 0 10 -7 10 -16z m8150 -14 c0 -5 -4 -10 -10 -10 -5 0 -10 5 -10 10 0 6 5
10 10 10 6 0 10 -4 10 -10z m767 -22 c-3 -8 -6 -5 -6 6 -1 11 2 17 5 13 3 -3
4 -12 1 -19z m-7727 -8 c0 -5 -2 -10 -4 -10 -3 0 -8 5 -11 10 -3 6 -1 10 4 10
6 0 11 -4 11 -10z m3635 1 c3 -5 2 -12 -3 -15 -5 -3 -9 1 -9 9 0 17 3 19 12 6z
m-4910 -30 c3 -5 2 -12 -3 -15 -5 -3 -9 1 -9 9 0 17 3 19 12 6z m1980 -41 c3
-5 1 -10 -4 -10 -6 0 -11 5 -11 10 0 6 2 10 4 10 3 0 8 -4 11 -10z m7460 -19
c-3 -2 -11 1 -18 7 -8 7 -18 8 -22 4 -5 -4 -5 -1 -1 5 5 10 11 10 26 1 11 -7
17 -14 15 -17z m-5048 -3 c-3 -8 -6 -5 -6 6 -1 11 2 17 5 13 3 -3 4 -12 1 -19z
m-2277 -58 c0 -5 -2 -10 -4 -10 -3 0 -8 5 -11 10 -3 6 -1 10 4 10 6 0 11 -4
11 -10z m6327 -66 c2 -13 1 -15 -4 -4 -3 8 -11 19 -17 23 -7 6 -6 7 4 4 8 -2
16 -12 17 -23z m-210 1 c0 -8 -4 -15 -9 -15 -10 0 -11 14 -1 23 9 10 10 9 10
-8z m603 -5 c0 -5 -2 -10 -4 -10 -3 0 -8 5 -11 10 -3 6 -1 10 4 10 6 0 11 -4
11 -10z m-9110 -10 c0 -5 -5 -10 -11 -10 -5 0 -7 5 -4 10 3 6 8 10 11 10 2 0
4 -4 4 -10z"/>
<path d="M5073 9065 c-33 -23 -43 -75 -43 -215 0 -107 3 -130 20 -157 23 -38
59 -50 98 -34 50 21 57 43 60 202 4 164 -1 183 -53 205 -43 18 -55 18 -82 -1z"/>
<path d="M3936 8739 c-30 -36 -35 -92 -10 -127 8 -12 12 -27 9 -32 -4 -6 -3
-9 2 -8 4 2 58 -49 119 -111 104 -106 114 -113 140 -107 36 9 69 39 84 77 15
36 2 58 -124 207 -119 140 -169 162 -220 101z"/>
<path d="M6209 8732 c-48 -31 -192 -203 -213 -255 -19 -46 -4 -90 38 -116 18
-12 40 -21 48 -21 17 0 165 148 227 227 34 43 41 60 41 96 0 56 -29 97 -69 97
-15 0 -47 -13 -72 -28z"/>
<path d="M4308 6083 c7 -3 16 -2 19 1 4 3 -2 6 -13 5 -11 0 -14 -3 -6 -6z"/>
<path d="M5843 6083 c9 -2 25 -2 35 0 9 3 1 5 -18 5 -19 0 -27 -2 -17 -5z"/>
<path d="M5968 6083 c6 -2 18 -2 25 0 6 3 1 5 -13 5 -14 0 -19 -2 -12 -5z"/>
<path d="M5782 6068 c6 -18 28 -21 28 -4 0 9 -7 16 -16 16 -9 0 -14 -5 -12
-12z"/>
<path d="M4520 6040 c-8 -5 -12 -11 -9 -14 2 -3 11 -1 19 4 8 5 12 11 9 14 -2
3 -11 1 -19 -4z"/>
<path d="M5735 6019 c-4 -6 -4 -13 -1 -16 3 -4 6 -1 6 6 0 7 5 9 12 5 7 -4 8
-3 4 4 -9 15 -13 15 -21 1z"/>
<path d="M5711 5983 c-1 -12 -4 -28 -7 -37 -3 -9 -2 -16 4 -16 15 0 20 22 11
50 -6 23 -7 23 -8 3z"/>
<path d="M5741 5964 c0 -11 3 -14 6 -6 3 7 2 16 -1 19 -3 4 -6 -2 -5 -13z"/>
<path d="M6177 5933 c-3 -5 -2 -15 2 -22 5 -7 11 -9 14 -4 3 5 2 15 -2 22 -5
7 -11 9 -14 4z"/>
<path d="M5805 5870 c4 -6 11 -8 16 -5 14 9 11 15 -7 15 -8 0 -12 -5 -9 -10z"/>
<path d="M4372 7430 c0 -19 2 -27 5 -17 2 9 2 25 0 35 -3 9 -5 1 -5 -18z"/>
<path d="M5150 7350 c10 -18 4 -50 -9 -50 -4 0 -12 5 -19 12 -9 9 -12 9 -12 0
0 -7 -7 -12 -15 -12 -10 0 -15 -11 -15 -35 0 -39 -1 -39 35 -25 38 15 69 112
39 124 -11 4 -12 2 -4 -14z m-16 -85 c-4 -8 -8 -15 -10 -15 -2 0 -4 7 -4 15 0
8 4 15 10 15 5 0 7 -7 4 -15z"/>
<path d="M5080 7338 c0 -16 5 -28 10 -28 13 0 13 20 0 40 -8 12 -10 9 -10 -12z"/>
<path d="M4380 7339 c0 -5 5 -7 10 -4 6 3 10 8 10 11 0 2 -4 4 -10 4 -5 0 -10
-5 -10 -11z"/>
<path d="M4666 7314 c-3 -8 -10 -12 -16 -9 -5 3 -10 -1 -10 -9 0 -9 6 -15 13
-13 7 1 14 -15 18 -43 5 -37 6 -33 5 22 0 38 -2 68 -2 68 -1 0 -5 -7 -8 -16z"/>
<path d="M4641 7224 c0 -11 3 -14 6 -6 3 7 2 16 -1 19 -3 4 -6 -2 -5 -13z"/>
<path d="M5555 7210 c-3 -5 -1 -10 4 -10 6 0 11 5 11 10 0 6 -2 10 -4 10 -3 0
-8 -4 -11 -10z"/>
<path d="M4415 7190 c7 -24 33 -56 39 -49 2 2 -8 20 -22 39 -19 28 -23 30 -17
10z"/>
<path d="M5534 7136 c-9 -20 -9 -23 2 -19 8 3 14 14 14 24 0 25 -3 24 -16 -5z"/>
<path d="M4556 7085 c5 -11 2 -13 -11 -9 -17 7 -17 6 0 -19 21 -33 21 -33 36
-4 11 20 11 21 -5 8 -16 -13 -17 -12 -11 12 5 17 3 27 -4 27 -6 0 -8 -7 -5
-15z"/>
<path d="M5231 6964 c1 -38 3 -61 6 -52 2 9 10 15 18 12 13 -5 28 10 31 32 1
6 5 21 8 32 5 14 1 21 -11 25 -10 2 -26 8 -35 12 -16 6 -18 0 -17 -61z m59 31
c0 -1 -12 -12 -27 -26 -16 -13 -22 -17 -15 -9 15 18 16 34 0 24 -6 -4 -8 -3
-5 2 4 7 47 15 47 9z"/>
<path d="M5255 6898 c-11 -6 -23 -16 -27 -21 -3 -6 -7 -115 -7 -243 l-2 -234
83 0 84 0 16 95 c9 52 29 121 43 153 15 31 27 71 27 87 0 17 2 24 5 17 4 -10
8 -10 19 -1 8 6 14 16 14 21 0 6 -7 4 -17 -3 -20 -17 -16 -17 -37 0 -14 12
-16 12 -10 -2 3 -9 1 -30 -5 -47 -6 -18 -6 -28 -1 -25 6 4 10 1 10 -4 0 -6 -7
-11 -15 -11 -9 0 -15 -9 -15 -22 0 -17 -3 -19 -9 -9 -7 11 -9 11 -13 0 -4 -12
-9 -12 -30 0 -15 7 -31 10 -37 7 -6 -4 -11 0 -11 8 0 10 6 13 18 10 10 -4 13
-2 7 3 -5 4 -10 14 -10 22 0 8 -7 16 -15 18 -12 4 -12 3 -1 -5 11 -8 10 -14
-4 -36 -14 -22 -20 -24 -32 -14 -13 10 -12 13 4 19 16 5 16 7 -4 13 -13 4 -22
12 -20 18 1 6 -4 13 -12 16 -8 3 -11 0 -7 -7 4 -6 2 -11 -3 -11 -6 0 -11 7
-11 15 0 9 9 15 21 15 21 0 21 0 -2 20 l-24 20 25 20 c15 12 18 18 8 14 -14
-5 -18 -1 -18 19 0 32 9 57 22 57 5 0 6 -4 3 -10 -3 -5 -2 -17 3 -27 7 -12 10
-8 9 20 -1 20 -1 37 -2 37 0 0 -9 -6 -20 -12z m142 -274 c-3 -3 -12 -4 -19 -1
-8 3 -5 6 6 6 11 1 17 -2 13 -5z"/>
<path d="M5508 6793 c7 -3 16 -2 19 1 4 3 -2 6 -13 5 -11 0 -14 -3 -6 -6z"/>
<path d="M5270 6774 c0 -8 5 -12 10 -9 6 4 8 11 5 16 -9 14 -15 11 -15 -7z"/>
<path d="M3446 7635 c-26 -24 -34 -63 -20 -100 14 -36 147 -78 292 -91 90 -9
118 -1 142 39 26 42 25 59 -5 95 -27 32 -88 51 -232 72 -114 16 -146 13 -177
-15z"/>
<path d="M6660 7660 c-148 -18 -249 -42 -274 -65 -50 -46 -44 -104 15 -147 24
-18 29 -18 135 -3 206 31 258 51 278 108 14 38 -16 92 -57 106 -16 6 -30 10
-31 10 -1 -1 -30 -5 -66 -9z"/>
<path d="M4575 5970 c-3 -6 1 -7 9 -4 18 7 21 14 7 14 -6 0 -13 -4 -16 -10z"/>
<path d="M4601 5943 c-1 -17 16 -25 25 -12 4 7 3 9 -4 5 -5 -3 -13 0 -15 6 -4
9 -6 10 -6 1z"/>
</g>
</svg>
